<svg width="18" height="18" viewBox="0 0 18 18" fill="none" xmlns="http://www.w3.org/2000/svg">
<mask id="mask0_1315_158" style="mask-type:luminance" maskUnits="userSpaceOnUse" x="0" y="0" width="18" height="18">
<path fill-rule="evenodd" clip-rule="evenodd" d="M0.666504 0.66684H17.3355V17.3343H0.666504V0.66684Z" fill="white"/>
</mask>
<g mask="url(#mask0_1315_158)">
<path fill-rule="evenodd" clip-rule="evenodd" d="M8.12044 15.7296C8.61211 16.2096 9.40377 16.2038 9.89211 15.7129L10.4938 15.1129C10.9604 14.6471 11.6054 14.3813 12.2629 14.3813H13.1213C13.8163 14.3813 14.3813 13.8163 14.3813 13.1221V12.2646C14.3813 11.5971 14.6396 10.9696 15.1113 10.4971L15.7113 9.89627C15.9554 9.65127 16.0863 9.33377 16.0854 8.9971C16.0846 8.66127 15.9521 8.34543 15.7129 8.1071L15.1121 7.50543C14.6396 7.0296 14.3813 6.40293 14.3813 5.73543V4.8796C14.3813 4.1846 13.8163 3.6196 13.1213 3.6196H12.2646C11.5971 3.6196 10.9696 3.36043 10.4971 2.89127L9.89544 2.28877C9.39461 1.79293 8.59544 1.79543 8.10627 2.28793L7.50711 2.88877C7.02877 3.36127 6.40127 3.6196 5.73627 3.6196H4.87877C4.18461 3.62043 3.61961 4.18543 3.61961 4.8796V5.73377C3.61961 6.40127 3.36044 7.02877 2.89044 7.5021L2.29877 8.0946C2.29294 8.10127 2.28711 8.10627 2.28127 8.1121C1.79211 8.6046 1.79461 9.40377 2.28711 9.89293L2.88877 10.4946C3.36044 10.9679 3.61961 11.5954 3.61961 12.2629V13.1221C3.61961 13.8163 4.18377 14.3813 4.87877 14.3813H5.73461C6.40294 14.3821 7.03044 14.6413 7.50294 15.1121L8.10377 15.7113C8.10877 15.7171 8.11461 15.7229 8.12044 15.7296ZM8.99877 17.3346C8.35961 17.3346 7.72044 17.0929 7.23127 16.6079C7.22461 16.6013 7.21794 16.5946 7.21127 16.5871L6.61961 15.9963C6.38377 15.7621 6.06877 15.6321 5.73377 15.6313H4.87877C3.49461 15.6313 2.36961 14.5054 2.36961 13.1221V12.2629C2.36961 11.9279 2.23877 11.6138 2.00377 11.3771L1.40461 10.7788C0.431272 9.81043 0.419606 8.23377 1.37544 7.25043C1.38294 7.24293 1.39044 7.23543 1.39794 7.22793L2.00461 6.6196C2.23877 6.38377 2.36961 6.06793 2.36961 5.73377V4.8796C2.36961 3.49627 3.49461 2.37043 4.87794 2.3696H5.73627C6.07044 2.3696 6.38544 2.23877 6.62461 2.00293L7.22044 1.40543C8.19461 0.424601 9.78711 0.419601 10.7696 1.39627L11.3788 2.00543C11.6146 2.2396 11.9296 2.3696 12.2646 2.3696H13.1213C14.5054 2.3696 15.6313 3.49543 15.6313 4.8796V5.73543C15.6313 6.0696 15.7613 6.38543 15.9971 6.62293L16.5954 7.2221C17.0696 7.69293 17.3329 8.3221 17.3354 8.99293C17.3379 9.66377 17.0788 10.2946 16.6063 10.7704L15.9954 11.3796C15.7613 11.6154 15.6313 11.9296 15.6313 12.2646V13.1221C15.6313 14.5054 14.5054 15.6313 13.1221 15.6313H12.2629C11.9329 15.6313 11.6104 15.7646 11.3763 15.9971L10.7779 16.5954C10.2888 17.0879 9.64377 17.3346 8.99877 17.3346Z" fill="#C67C4E"/>
</g>
<path fill-rule="evenodd" clip-rule="evenodd" d="M6.85819 11.7679C6.69819 11.7679 6.53819 11.7071 6.41652 11.5846C6.17236 11.3404 6.17236 10.9454 6.41652 10.7013L10.6999 6.4171C10.944 6.17294 11.3399 6.17294 11.584 6.4171C11.8282 6.66127 11.8282 7.0571 11.584 7.30127L7.29986 11.5846C7.17819 11.7071 7.01819 11.7679 6.85819 11.7679Z" fill="#C67C4E"/>
<path fill-rule="evenodd" clip-rule="evenodd" d="M11.086 11.916C10.6252 11.916 10.2485 11.5435 10.2485 11.0827C10.2485 10.6219 10.6177 10.2494 11.0785 10.2494H11.086C11.5469 10.2494 11.9194 10.6219 11.9194 11.0827C11.9194 11.5435 11.5469 11.916 11.086 11.916Z" fill="#C67C4E"/>
<path fill-rule="evenodd" clip-rule="evenodd" d="M6.91953 7.74934C6.4587 7.74934 6.08203 7.37684 6.08203 6.91601C6.08203 6.45517 6.4512 6.08267 6.91203 6.08267H6.91953C7.38036 6.08267 7.75286 6.45517 7.75286 6.91601C7.75286 7.37684 7.38036 7.74934 6.91953 7.74934Z" fill="#C67C4E"/>
</svg>
