<svg width="13" height="13" viewBox="0 0 13 13" fill="none" xmlns="http://www.w3.org/2000/svg">
<path d="M5.70399 0.626923H3.52291C1.72916 0.626923 0.604492 1.89684 0.604492 3.69467V8.54451C0.604492 10.3423 1.72391 11.6123 3.52291 11.6123H8.67024C10.4698 11.6123 11.5892 10.3423 11.5892 8.54451V6.19484" stroke="#313131" stroke-linecap="round" stroke-linejoin="round"/>
<path fill-rule="evenodd" clip-rule="evenodd" d="M4.14986 5.37053L8.50911 1.01128C9.05219 0.468776 9.93244 0.468776 10.4755 1.01128L11.1854 1.72119C11.7285 2.26428 11.7285 3.14511 11.1854 3.68761L6.80519 8.06786C6.56778 8.30528 6.24578 8.43886 5.90978 8.43886H3.72461L3.77944 6.23386C3.78761 5.90953 3.92003 5.60036 4.14986 5.37053Z" stroke="#313131" stroke-linecap="round" stroke-linejoin="round"/>
<path d="M7.84668 1.6848L10.5102 4.3483" stroke="#313131" stroke-linecap="round" stroke-linejoin="round"/>
</svg>
