<svg width="19" height="22" viewBox="0 0 19 22" fill="none" xmlns="http://www.w3.org/2000/svg">
<mask id="mask0_1315_264" style="mask-type:luminance" maskUnits="userSpaceOnUse" x="0" y="0" width="19" height="18">
<path fill-rule="evenodd" clip-rule="evenodd" d="M0.5 0H18.9969V17.348H0.5V0Z" fill="white"/>
</mask>
<g mask="url(#mask0_1315_264)">
<path fill-rule="evenodd" clip-rule="evenodd" d="M9.74701 1.5C6.25201 1.5 3.81601 4.238 3.81601 6.695C3.81601 8.774 3.23901 9.735 2.72901 10.583C2.32001 11.264 1.99701 11.802 1.99701 12.971C2.16401 14.857 3.40901 15.848 9.74701 15.848C16.05 15.848 17.334 14.813 17.5 12.906C17.497 11.802 17.174 11.264 16.765 10.583C16.255 9.735 15.678 8.774 15.678 6.695C15.678 4.238 13.242 1.5 9.74701 1.5ZM9.74701 17.348C5.07101 17.348 0.845013 17.018 0.500013 13.035C0.497013 11.387 1.00001 10.549 1.44401 9.811C1.89301 9.063 2.31601 8.358 2.31601 6.695C2.31601 3.462 5.30201 0 9.74701 0C14.192 0 17.178 3.462 17.178 6.695C17.178 8.358 17.601 9.063 18.05 9.811C18.494 10.549 18.997 11.387 18.997 12.971C18.648 17.018 14.423 17.348 9.74701 17.348Z" fill="#A2A2A2"/>
</g>
<path fill-rule="evenodd" clip-rule="evenodd" d="M9.69827 21.5H9.69627C8.57527 21.499 7.51427 21.005 6.70927 20.108C6.43227 19.801 6.45727 19.326 6.76527 19.05C7.07327 18.772 7.54727 18.797 7.82427 19.106C8.34227 19.683 9.00727 20 9.69727 20H9.69827C10.3913 20 11.0593 19.683 11.5783 19.105C11.8563 18.798 12.3303 18.773 12.6373 19.05C12.9453 19.327 12.9703 19.802 12.6933 20.109C11.8853 21.006 10.8223 21.5 9.69827 21.5Z" fill="#A2A2A2"/>
</svg>
